<svg width="146" height="49" viewBox="0 0 146 49" fill="none" xmlns="http://www.w3.org/2000/svg">
<path d="M128.32 26.6821H138.633L138.037 23.3469L137.16 22.7792H141.124L142.773 30.1239H123.269C122.848 29.2368 122.778 29.0239 122.357 28.1369L128.496 20.4019H123.128L124.041 17.5989H145.509L144.597 20.4019H133.161L128.32 26.6821Z" fill="#123467"/>
<path d="M119.901 22.3889L118.849 24.3759H106.08L105.484 25.1565H118.779L116.814 30.1239H98.573L99.1343 28.2788H96.7839L100.467 24.3759H98.5379L99.3447 22.2825L119.901 22.3889ZM104.536 28.1014H113.271L113.692 27.037L104.957 27.0725L104.536 28.1014Z" fill="#123467"/>
<path d="M88.2596 12.5605C87.4527 14.583 81.2788 30.1594 81.2788 30.1594L78.5426 30.1949L81.5945 22.0341H78.5777C78.5777 22.0341 75.3153 29.8755 75.175 30.1594H72.3687C73.3158 27.9241 79.4547 12.5605 79.4547 12.5605H88.2596ZM84.471 15.0088H81.5243L79.9809 19.0537H82.7872L84.471 15.0088Z" fill="#123467"/>
<path d="M85.5234 30.1237H81.9453L87.4528 16.9246H97.9765L93.9424 27.3561L95.977 26.4336L94.5037 30.1237H89.2067L93.1707 20.3308H89.8732L85.5234 30.1237Z" fill="#123467"/>
<path d="M64.09 15.5408H66.3701L67.9487 14.3345H64.3355L65.2125 11.9927H76.2625C75.9818 12.7733 75.7012 13.4829 75.3504 14.299H72.1582L70.5446 15.5053H74.4384L71.1058 25.0499H68.1241L70.6498 17.8116H66.0193L62.8271 25.0854H59.9155C59.9155 25.1208 62.792 18.6987 64.09 15.5408Z" fill="#123467"/>
<path d="M113.587 12.3476L109.763 21.6792H106.922L108.395 18.5568H104.536L103.063 21.6792H99.9409L104.045 12.3476H106.536L106.992 11.5315H110.851L110.395 12.3121H113.587V12.3476ZM108.991 16.5344C109.307 15.7538 109.588 15.0087 109.939 14.1926H106.29C105.904 15.0087 105.589 15.7538 105.203 16.5344H108.991Z" fill="#123467"/>
<path d="M53.2506 24.4822L53.7417 25.6176C53.7417 25.6176 55.6009 23.4533 56.4077 22.4243H50.7599C51.0756 21.5727 51.3563 20.8631 51.672 20.0825H61.2135L55.4605 28.7755L55.8113 30.1238L52.5139 30.0883L50.1636 24.5177L53.2506 24.4822Z" fill="#123467"/>
<path d="M66.5105 18.8762H69.352L67.5278 24.2339L69.0713 30.1593H66.1948L65.5283 26.1854L61.5994 30.1593H57.8459C59.4245 28.7401 62.1958 26.1499 62.1958 26.1499L64.511 24.021L66.5105 18.8762Z" fill="#123467"/>
<path d="M55.1447 11.9927H57.1091H63.3182L61.5642 18.8406H59.4945L60.2312 14.228H58.1264L56.6531 16.4633H58.9332V19.1245H56.0217V17.4923L55.0745 18.8406H51.9875L55.7761 12.6668L55.1447 11.9927Z" fill="#123467"/>
<path d="M126.847 15.1862L127.969 12.4541H146L144.842 15.1862H126.847Z" fill="#123467"/>
<path d="M111.903 20.0116L113.657 20.0471L112.079 19.231L112.535 18.3085L115.657 18.7698L118.147 17.8118H112.675C112.955 17.1376 113.166 16.5699 113.412 16.0022H122.041L120.813 18.3085L117.937 20.0826L120.357 19.9761L119.34 21.7857L115.727 21.218L111.026 21.7857L111.903 20.0116Z" fill="#123467"/>
<path d="M88.8209 12.7025H92.1183L92.6796 11.4961H97.3451C97.0996 12.1702 96.854 12.7025 96.854 12.7025H100.011L98.7834 15.9313H87.6282L88.8209 12.7025Z" fill="#123467"/>
<path d="M122.181 11.8153L121.585 13.4474H123.304L121.76 15.3634H118.779L119.48 13.4474H116.639L115.622 15.3634H113.587L115.481 11.7798L122.181 11.8153Z" fill="#123467"/>
<path d="M108.5 16.1086C108.606 15.6473 108.676 15.257 108.746 14.8667H106.325C106.255 15.328 106.185 15.7183 106.115 16.1086H108.5Z" fill="#123467"/>
<path d="M108.5 16.1086H106.115C106.325 15.6829 106.501 15.2926 106.711 14.8313H109.132C108.956 15.2216 108.746 15.6119 108.5 16.1086Z" fill="#123467"/>
<path d="M106.641 20.863H104.256C104.466 20.4372 104.642 20.047 104.852 19.5857H107.273C107.097 19.976 106.887 20.4018 106.641 20.863Z" fill="#123467"/>
<path d="M77.2096 19.0535H75.8065L74.719 21.9984H76.1222L77.2096 19.0535Z" fill="#123467"/>
<path d="M83.4537 15.6829H82.0155L81.0684 18.3085H82.4715L83.4537 15.6829Z" fill="#123467"/>
<path d="M80.5772 22.8501H79.1741L76.6133 29.3077H78.0165L80.5772 22.8501Z" fill="#123467"/>
<path d="M103.168 16.0376L101.765 16.0731L100.678 18.8052L102.081 18.7697L103.168 16.0376Z" fill="#123467"/>
<path d="M78.2268 12.596H81.5243L82.0855 11.3896H86.7511C86.5055 12.0638 86.26 12.596 86.26 12.596H89.4171" fill="#123467"/>
<path d="M52.3385 34.7009H50.0583V35.0557H52.3385V34.7009Z" fill="#123467"/>
<path d="M144.597 34.7009H142.317V35.0557H144.597V34.7009Z" fill="#123467"/>
<mask id="mask0_16_14934" style="mask-type:luminance" maskUnits="userSpaceOnUse" x="11" y="12" width="28" height="25">
<path d="M16.2418 12.9152L11.1202 32.3946C10.594 34.417 12.0674 36.4395 14.1371 36.4395H36.5176C37.1841 36.4395 37.7805 36.2266 38.3067 35.8363L33.7464 31.0463H33.7113C33.6762 31.0463 33.6411 31.0817 33.571 31.0817H19.0131C18.0659 31.0817 17.3994 30.1592 17.645 29.2367L20.8021 17.2439L16.3821 12.5249C16.312 12.6668 16.2769 12.7733 16.2418 12.9152Z" fill="white"/>
</mask>
<g mask="url(#mask0_16_14934)">
<path d="M30.6593 49L0 29.84L18.2412 0L48.8654 19.1245L30.6593 49Z" fill="url(#paint0_linear_16_14934)"/>
</g>
<mask id="mask1_16_14934" style="mask-type:luminance" maskUnits="userSpaceOnUse" x="17" y="10" width="28" height="25">
<path d="M19.2587 10.5735C18.7325 10.5735 18.2414 10.7509 17.7854 10.9993L22.486 16.1441H36.7633C37.7104 16.1441 38.3769 16.9956 38.1314 17.9182L35.0795 29.3787L39.4293 34.1332C39.4293 34.0977 39.4644 34.0623 39.4644 33.9913L44.6211 14.5829C45.1472 12.5605 43.6739 10.5735 41.6042 10.5735H19.2587V10.5735Z" fill="white"/>
</mask>
<g mask="url(#mask1_16_14934)">
<path d="M45.1823 10.5735H17.7854V34.1332H45.1823V10.5735Z" fill="url(#paint1_linear_16_14934)"/>
</g>
<path d="M25.3274 25.5466L23.7839 31.472H27.0814L25.7484 25.5466C25.7133 25.3337 25.3625 25.3337 25.3274 25.5466Z" fill="#0075C2"/>
<path d="M30.1331 21.9987L28.5896 16.0732H31.8871L30.554 21.9987C30.519 22.2115 30.1682 22.247 30.1331 21.9987Z" fill="#0075C2"/>
<mask id="mask2_16_14934" style="mask-type:luminance" maskUnits="userSpaceOnUse" x="12" y="12" width="9" height="20">
<path d="M16.3822 12.5249C16.312 12.6668 16.2769 12.8088 16.2418 12.9507L12.5234 26.9659C13.6811 31.472 18.1712 31.1527 18.8728 31.0817H18.9079H18.8728C17.9958 31.0108 17.3644 30.1237 17.5749 29.2367L20.732 17.2439L16.3822 12.5249Z" fill="white"/>
</mask>
<g mask="url(#mask2_16_14934)">
<path d="M13.611 34.2751L6.20923 14.9732L19.6797 9.72192L27.0814 28.9884L13.611 34.2751Z" fill="url(#paint2_linear_16_14934)"/>
</g>
<mask id="mask3_16_14934" style="mask-type:luminance" maskUnits="userSpaceOnUse" x="34" y="16" width="9" height="19">
<path d="M38.1663 17.8827L34.9741 29.911C34.939 30.0174 34.9039 30.1238 34.8337 30.2303L39.2888 34.63C39.394 34.4526 39.4642 34.2397 39.4993 34.0268L42.9721 20.8632C42.3758 18.7698 40.8674 16.428 37.0087 16.1086C37.8506 16.2506 38.3767 17.0666 38.1663 17.8827Z" fill="white"/>
</mask>
<g mask="url(#mask3_16_14934)">
<path d="M52.1629 25.3693L38.938 38.7458L25.7131 25.3693L38.938 11.9573L52.1629 25.3693Z" fill="url(#paint3_linear_16_14934)"/>
</g>
<path d="M55.9515 33.2817H56.4075L56.9337 34.9139L57.074 35.5171H57.1091C57.1442 35.2332 57.2144 34.8784 57.2845 34.5946L57.6353 33.3172H58.0563L57.3196 36.0848H56.8285L56.3374 34.4526L56.1971 33.8849H56.162C56.1269 34.1688 56.0568 34.4881 55.9866 34.8074L55.6358 36.1203H55.2148L55.9515 33.2817Z" fill="#123467"/>
<path d="M67.2822 35.2687H66.3L65.844 36.0493H65.3879L67.0717 33.2817H67.5979L67.8084 36.0493H67.3173L67.2822 35.2687ZM67.2471 34.9139V34.5236C67.2471 34.2397 67.2121 33.9204 67.2121 33.6011C67.0367 33.9204 66.8613 34.2397 66.721 34.5236L66.5105 34.9139H67.2471Z" fill="#123467"/>
<path d="M76.1572 33.2817H76.6483L76.6834 34.701C76.6834 35.0203 76.6834 35.3042 76.7185 35.6235H76.7536C76.929 35.3042 77.0693 35.0203 77.2447 34.701L78.0515 33.2817H78.5075L76.8939 36.0493H76.3677L76.1572 33.2817Z" fill="#123467"/>
<path d="M86.5406 33.2817H86.9966L86.26 36.0493H85.804L86.5406 33.2817Z" fill="#123467"/>
<path d="M94.9245 34.6654C95.1701 33.7429 95.8716 33.2107 96.5732 33.2107C96.924 33.2107 97.1696 33.3881 97.2748 33.5655L96.9591 33.8494C96.8539 33.7074 96.7135 33.601 96.468 33.601C95.9769 33.601 95.5208 33.9913 95.3454 34.6654C95.1701 35.3396 95.3805 35.7299 95.8716 35.7299C96.1172 35.7299 96.3627 35.6234 96.5732 35.446L96.7486 35.7299C96.468 35.9783 96.1172 36.1202 95.7664 36.1202C95.0999 36.1202 94.6789 35.588 94.9245 34.6654Z" fill="#123467"/>
<path d="M105.659 33.2817H106.115L105.483 35.6945H106.676L106.571 36.0493H104.922L105.659 33.2817Z" fill="#123467"/>
<path d="M114.885 34.6654C115.13 33.7783 115.762 33.2461 116.498 33.2461C117.235 33.2461 117.586 33.7783 117.375 34.6654C117.13 35.5524 116.498 36.1201 115.762 36.1201C114.99 36.1201 114.639 35.5524 114.885 34.6654ZM116.884 34.6654C117.06 34.0267 116.849 33.6009 116.393 33.6009C115.937 33.6009 115.516 33.9912 115.341 34.6654C115.165 35.304 115.376 35.7298 115.832 35.7298C116.323 35.7298 116.709 35.304 116.884 34.6654Z" fill="#123467"/>
<path d="M125.584 34.8784L126.005 33.2817H126.461L126.04 34.8784C125.865 35.5171 126.075 35.6945 126.426 35.6945C126.777 35.6945 127.092 35.4816 127.268 34.8784L127.689 33.2817H128.11L127.689 34.8784C127.443 35.8009 126.952 36.1203 126.321 36.1203C125.689 36.1203 125.338 35.7654 125.584 34.8784Z" fill="#123467"/>
<path d="M136.564 33.2817H137.3C138.177 33.2817 138.563 33.743 138.318 34.6655C138.072 35.5526 137.441 36.0493 136.599 36.0493H135.827L136.564 33.2817ZM136.634 35.6945C137.23 35.6945 137.651 35.3397 137.862 34.6655C138.037 33.9559 137.792 33.6366 137.195 33.6366H136.95L136.388 35.6945H136.634Z" fill="#123467"/>
<defs>
<linearGradient id="paint0_linear_16_14934" x1="40.3412" y1="34.4364" x2="16.265" y2="19.7395" gradientUnits="userSpaceOnUse">
<stop stop-color="#006AB8"/>
<stop offset="0.4944" stop-color="#0087D2"/>
<stop offset="0.9662" stop-color="#00A0E9"/>
<stop offset="1" stop-color="#00A0E9"/>
</linearGradient>
<linearGradient id="paint1_linear_16_14934" x1="17.7868" y1="22.3675" x2="44.7764" y2="22.3675" gradientUnits="userSpaceOnUse">
<stop stop-color="#0075C2"/>
<stop offset="0.1856" stop-color="#0075C2"/>
<stop offset="0.755" stop-color="#00A0E9"/>
<stop offset="1" stop-color="#00A0E9"/>
</linearGradient>
<linearGradient id="paint2_linear_16_14934" x1="19.4463" y1="29.2788" x2="13.513" y2="14.1507" gradientUnits="userSpaceOnUse">
<stop stop-color="#0075C2"/>
<stop offset="0.2008" stop-color="#0075C2"/>
<stop offset="1" stop-color="#00B8EE"/>
</linearGradient>
<linearGradient id="paint3_linear_16_14934" x1="43.832" y1="20.4108" x2="34.3663" y2="29.7692" gradientUnits="userSpaceOnUse">
<stop stop-color="#0075C2"/>
<stop offset="0.2008" stop-color="#0075C2"/>
<stop offset="1" stop-color="#00B8EE"/>
</linearGradient>
</defs>
</svg>
